<?xml version="1.0" encoding="UTF-8"?>
<svg id="Layer_2" data-name="Layer 2" xmlns="http://www.w3.org/2000/svg" viewBox="0 0 1500.27 295">
  <defs>
    <style>
      .cls-1 {
        fill: #2a2d79;
      }
    </style>
  </defs>
  <g id="Layer_1-2" data-name="Layer 1">
    <path class="cls-1" d="M415.43,230.59c-16.62,16.18-33.64,26.5-55.32,35.78-77.95,33.35-149.48,37.14-231.51,13.59-19.82-5.69-37.9-13.4-55.71-23.37,12.61-27.54,24.94-55.21,37.82-82.64,10.62-22.61,21.29-47.28,33.19-69.13,4.08-7.49,11.04-20.07,20.93-10.94,18.47,34.37,32.45,71.03,50.62,105.56,5.15,5.9,13.12,6.55,19.77,2.29,4.56-2.92,7.39-9.4,9.81-14.01,16.18-30.84,29.34-63.22,46.54-93.55,5.87-7.15,11.28-7.03,18.25-1.15,17.1,28.94,31.89,59.23,48.02,88.71,2.71,4.95,9.62,19.27,13.54,22.12,8.08,5.88,18.32-.63,22.13-8.03,5.74-11.17,10.69-26.38,15.42-38.32,13.89-35.04,26.94-70.31,42.55-104.72,3.87-6.78,12.6.32,18.02,1.43l-15.67-42.85-43.64,19.58c4.27,4.19,16.27,2.94,14.41,11.25l-36.69,85.4c-4.89,4.82-11.54,13.63-18.24,5.92-17.42-26.99-29.41-57.85-45.45-85.58-5.7-9.86-11.32-15.37-24.3-13.58-10.02,1.38-14.48,7.14-18.84,14.99-14.33,25.8-25.94,54.53-40.91,79.82-2.43,4.1-7.76,13.09-13.73,10.16-2.91-1.43-6.83-8.6-8.49-11.55-14.2-25.21-24.45-52.4-37.82-77.98-2.73-5.22-5.71-11.29-11.3-14.18-9.34-4.83-21.09-2.69-27.79,5.11-22.67,46.58-44.48,93.76-65.73,141-8.39,18.64-16.47,37.41-24.5,56.19-2.34,3.62-5.15-.05-7.16-1.98C12.31,205.89-6,174.61,1.79,130.76,12.12,72.6,81.83,35.38,136.56,20.11,210.49-.51,308.1,3.06,374.32,42.9l30.82,20.32,8.36-19.78-18.97-8c-3.35-3.07-1.75-6.89,2.09-8.58,18.65-7.32,36.85-18.12,55.32-25.47,4.12-1.64,6.67-2.63,9.19,1.77l22.76,59.71c-1.22,11.58-21.88-3.95-25.03-2.07-4.49,11.22-10.08,22.13-14.55,33.35-.91,2.3-3.06,6.72-2.78,8.95.25,2,3.7,6.95,4.73,9.32,19.08,44.14,2.45,85.76-30.82,118.15Z"/>
    <g>
      <path class="cls-1" d="M714.14,147.34h-33v-69.4l-32.6,69.4h-36.6l-32.6-69.4v69.4h-32.8V11.34h36.4l47.4,99.8,47.2-99.8h36.6v136Z"/>
      <path class="cls-1" d="M848.54,11.34v30.4h-71.4v23.4h59.6v28.4h-59.6v23.4h71.4v30.4h-104.2V11.34h104.2Z"/>
      <path class="cls-1" d="M1007.94,147.34h-33l-68.8-83.2v83.2h-33V11.34h33l68.8,83V11.34h33v136Z"/>
      <path class="cls-1" d="M1115.74,66.14l56.8,81.2h-42.6l-37.2-56.2-23.4,25.6v30.6h-32.8V11.34h32.8v59.8l52-59.8h41.2l-46.8,54.8Z"/>
      <path class="cls-1" d="M1297.14,11.34v30.4h-71.4v23.4h59.6v28.4h-59.6v23.4h71.4v30.4h-104.2V11.34h104.2Z"/>
      <path class="cls-1" d="M1491.34,147.34h-33v-69.4l-32.6,69.4h-36.6l-32.6-69.4v69.4h-32.8V11.34h36.4l47.4,99.8,47.2-99.8h36.6v136Z"/>
    </g>
    <g>
      <path class="cls-1" d="M552.05,182.04v80.88h-10.44v-80.88h10.44Z"/>
      <path class="cls-1" d="M570.29,262.92v-80.88h11.4l25.92,40.92c6,9.48,10.68,18,14.52,26.28l.24-.12c-.96-10.8-1.2-20.64-1.2-33.24v-33.84h9.84v80.88h-10.56l-25.68-41.04c-5.64-9-11.04-18.24-15.12-27l-.36.12c.6,10.2.84,19.92.84,33.36v34.56h-9.84Z"/>
      <path class="cls-1" d="M664.61,190.92h-24.6v-8.88h59.88v8.88h-24.72v72h-10.56v-72Z"/>
      <path class="cls-1" d="M718.37,180.72l-2.04,28.8h-6.48l-1.92-28.8h10.44Z"/>
      <path class="cls-1" d="M733.49,182.04h10.44v72.12h34.56v8.76h-45v-80.88Z"/>
      <path class="cls-1" d="M815.56,183.12c4.56-.96,11.76-1.68,19.08-1.68,10.44,0,17.16,1.8,22.2,5.88,4.2,3.12,6.72,7.92,6.72,14.28,0,7.8-5.16,14.64-13.68,17.76v.24c7.68,1.92,16.68,8.28,16.68,20.28,0,6.96-2.76,12.24-6.84,16.2-5.64,5.16-14.76,7.56-27.96,7.56-7.2,0-12.72-.48-16.2-.96v-79.56ZM826,216.24h9.48c11.04,0,17.52-5.76,17.52-13.56,0-9.48-7.2-13.2-17.76-13.2-4.8,0-7.56.36-9.24.72v26.04ZM826,255c2.04.36,5.04.48,8.76.48,10.8,0,20.76-3.96,20.76-15.72,0-11.04-9.48-15.6-20.88-15.6h-8.64v30.84Z"/>
      <path class="cls-1" d="M891.04,182.04v47.88c0,18.12,8.04,25.8,18.84,25.8,12,0,19.68-7.92,19.68-25.8v-47.88h10.56v47.16c0,24.84-13.08,35.04-30.6,35.04-16.56,0-29.04-9.48-29.04-34.56v-47.64h10.56Z"/>
      <path class="cls-1" d="M956.8,250.2c4.68,2.88,11.52,5.28,18.72,5.28,10.68,0,16.92-5.64,16.92-13.8,0-7.56-4.32-11.88-15.24-16.08-13.2-4.68-21.36-11.52-21.36-22.92,0-12.6,10.44-21.96,26.16-21.96,8.28,0,14.28,1.92,17.88,3.96l-2.88,8.52c-2.64-1.44-8.04-3.84-15.36-3.84-11.04,0-15.24,6.6-15.24,12.12,0,7.56,4.92,11.28,16.08,15.6,13.68,5.28,20.64,11.88,20.64,23.76,0,12.48-9.24,23.28-28.32,23.28-7.8,0-16.32-2.28-20.64-5.16l2.64-8.76Z"/>
      <path class="cls-1" d="M1027.84,182.04v80.88h-10.44v-80.88h10.44Z"/>
      <path class="cls-1" d="M1046.08,262.92v-80.88h11.4l25.92,40.92c6,9.48,10.68,18,14.52,26.28l.24-.12c-.96-10.8-1.2-20.64-1.2-33.24v-33.84h9.84v80.88h-10.56l-25.68-41.04c-5.64-9-11.04-18.24-15.12-27l-.36.12c.6,10.2.84,19.92.84,33.36v34.56h-9.84Z"/>
      <path class="cls-1" d="M1166.92,225h-31.44v29.16h35.04v8.76h-45.48v-80.88h43.68v8.76h-33.24v25.56h31.44v8.64Z"/>
      <path class="cls-1" d="M1182.64,250.2c4.68,2.88,11.52,5.28,18.72,5.28,10.68,0,16.92-5.64,16.92-13.8,0-7.56-4.32-11.88-15.24-16.08-13.2-4.68-21.36-11.52-21.36-22.92,0-12.6,10.44-21.96,26.16-21.96,8.28,0,14.28,1.92,17.88,3.96l-2.88,8.52c-2.64-1.44-8.04-3.84-15.36-3.84-11.04,0-15.24,6.6-15.24,12.12,0,7.56,4.92,11.28,16.08,15.6,13.68,5.28,20.64,11.88,20.64,23.76,0,12.48-9.24,23.28-28.32,23.28-7.8,0-16.32-2.28-20.64-5.16l2.64-8.76Z"/>
      <path class="cls-1" d="M1241.8,250.2c4.68,2.88,11.52,5.28,18.72,5.28,10.68,0,16.92-5.64,16.92-13.8,0-7.56-4.32-11.88-15.24-16.08-13.2-4.68-21.36-11.52-21.36-22.92,0-12.6,10.44-21.96,26.16-21.96,8.28,0,14.28,1.92,17.88,3.96l-2.88,8.52c-2.64-1.44-8.04-3.84-15.36-3.84-11.04,0-15.24,6.6-15.24,12.12,0,7.56,4.92,11.28,16.08,15.6,13.68,5.28,20.64,11.88,20.64,23.76,0,12.48-9.24,23.28-28.32,23.28-7.8,0-16.32-2.28-20.64-5.16l2.64-8.76Z"/>
      <path class="cls-1" d="M1327.84,183c5.04-.84,11.64-1.56,20.04-1.56,10.32,0,17.88,2.4,22.68,6.72,4.44,3.84,7.08,9.72,7.08,16.92s-2.16,13.08-6.24,17.28c-5.52,5.88-14.52,8.88-24.72,8.88-3.12,0-6-.12-8.4-.72v32.4h-10.44v-79.92ZM1338.28,222c2.28.6,5.16.84,8.64.84,12.6,0,20.28-6.12,20.28-17.28s-7.56-15.84-19.08-15.84c-4.56,0-8.04.36-9.84.84v31.44Z"/>
      <path class="cls-1" d="M1391.68,182.04h10.44v72.12h34.56v8.76h-45v-80.88Z"/>
      <path class="cls-1" d="M1500.15,260.28c-3.84,1.92-11.52,3.84-21.36,3.84-22.8,0-39.96-14.4-39.96-40.92s17.16-42.48,42.24-42.48c10.08,0,16.44,2.16,19.2,3.6l-2.52,8.52c-3.96-1.92-9.6-3.36-16.32-3.36-18.96,0-31.56,12.12-31.56,33.36,0,19.8,11.4,32.52,31.08,32.52,6.36,0,12.84-1.32,17.04-3.36l2.16,8.28Z"/>
    </g>
  </g>
</svg>